<svg xmlns="http://www.w3.org/2000/svg" width="400" height="340"><linearGradient id="grad1" x1="0%" y1="0%" x2="100%" y2="0%"><stop offset="0%" style="stop-color:#FFA500;stop-opacity:1" /><stop offset="100%" style="stop-color:#FF6347;stop-opacity:1" /></linearGradient><path fill="url(#grad1)" d="M298.68032971899396,262.7061959801505C291.2760440972649,271.6141204170749,264.63765622107127,268.44925941036513,252.62299613173482,273.44754662154634C240.60833604239838,278.44583383272754,237.15152353868157,286.4650903142522,226.5923691829753,292.69591924723767C216.033214827269,298.9267481802231,205.1002280988832,306.56330391913997,189.26806999749712,310.8325202194591C173.43591189611104,315.1017365197783,147.64987370211733,324.05648435783513,131.5994205746588,318.3112170491525C115.54896744720028,312.5659497404699,102.94542455736205,292.74611920888884,92.96535123274596,276.3609163673634C82.98527790812987,259.975713525838,69.73598972651203,237.83201403547136,71.71898062696229,220.00000000000003C73.70197152741255,202.1679859645287,93.5637473288866,184.0994644482035,104.86329663544753,169.36883215453545C116.16284594200845,154.63819986086742,125.82922111557589,139.98310305667516,139.51627646632784,131.6162062379918C153.20333181707977,123.24930941930843,169.50762766774386,129.5447166966234,186.9856287399592,119.16745124243523C204.46362981217453,108.79018578824709,224.4194573601182,72.77243663543668,244.38428289961988,69.35261351286289C264.34910843912155,65.9327903902891,294.1505797149684,82.37978015801056,306.77458197696933,98.64851250699247C319.3985842389703,114.91724485597439,321.7492751574356,146.7397596912531,320.12829647162556,166.96500760675437C318.50731778581553,187.19025552225563,300.62337098754784,204.04313527110065,297.04870986210926,220C293.4740487366707,235.95686472889935,306.084615340723,253.7982715432261,298.68032971899396,262.7061959801505" stroke="none" stroke-width="3"/></svg>